<svg width="55" height="55" viewBox="0 0 55 55" fill="none" xmlns="http://www.w3.org/2000/svg">
<path fill-rule="evenodd" clip-rule="evenodd" d="M27.5002 4.5835C21.276 4.5835 20.4968 4.611 18.0516 4.721C15.6133 4.83329 13.9472 5.22058 12.4897 5.78662C10.96 6.36141 9.57413 7.26316 8.42891 8.42891C7.26316 9.57413 6.36141 10.96 5.78662 12.4897C5.22058 13.9472 4.83329 15.6133 4.721 18.0516C4.6087 20.4968 4.5835 21.276 4.5835 27.5002C4.5835 33.7243 4.6087 34.5035 4.721 36.9487C4.83329 39.387 5.22058 41.0531 5.78662 42.5106C6.36141 44.0403 7.26316 45.4262 8.42891 46.5714C9.57413 47.7372 10.96 48.6389 12.4897 49.2137C13.9472 49.7797 15.6133 50.167 18.0516 50.2793C20.4968 50.3893 21.276 50.4168 27.5002 50.4168C33.7243 50.4168 34.5035 50.3893 36.9487 50.2793C39.387 50.167 41.0531 49.7797 42.5106 49.2137C44.0403 48.6389 45.4262 47.7372 46.5714 46.5714C47.7372 45.4262 48.6389 44.0403 49.2137 42.5106C49.7797 41.0531 50.167 39.387 50.2793 36.9487C50.3893 34.5035 50.4168 33.7243 50.4168 27.5002C50.4168 21.276 50.3893 20.4968 50.2793 18.0516C50.167 15.6133 49.7797 13.9472 49.2137 12.4897C48.6389 10.96 47.7372 9.57413 46.5714 8.42891C45.4262 7.26316 44.0403 6.36141 42.5106 5.78662C41.0531 5.22058 39.387 4.83329 36.9487 4.721C34.5035 4.611 33.7243 4.5835 27.5002 4.5835ZM27.5002 8.71308C33.6189 8.71308 34.3431 8.736 36.7585 8.846C38.9952 8.94912 40.2075 9.32037 41.0164 9.63433C42.0843 10.0514 42.8497 10.5487 43.6518 11.3485C44.4539 12.1506 44.9489 12.916 45.366 13.9839C45.6777 14.7929 46.0535 16.0052 46.1543 18.2395C46.2643 20.6572 46.2872 21.3791 46.2872 27.5002C46.2872 33.6189 46.2643 34.3431 46.1543 36.7585C46.0512 38.9952 45.6777 40.2075 45.366 41.0164C44.9986 42.0119 44.4129 42.9124 43.6518 43.6518C42.8497 44.4539 42.0843 44.9489 41.0164 45.366C40.2075 45.6777 38.9952 46.0535 36.7608 46.1543C34.3454 46.2643 33.6212 46.2872 27.5002 46.2872C21.3814 46.2872 20.655 46.2643 18.2418 46.1543C16.0052 46.0512 14.7929 45.6777 13.9839 45.366C12.9884 44.9986 12.0879 44.4129 11.3485 43.6518C10.5875 42.9124 10.0017 42.0119 9.63433 41.0164C9.32037 40.2075 8.94683 38.9952 8.846 36.7608C8.736 34.3431 8.71308 33.6212 8.71308 27.5002C8.71308 21.3814 8.736 20.6572 8.846 18.2418C8.94912 16.0052 9.32037 14.7929 9.63433 13.9839C10.0514 12.916 10.5487 12.1506 11.3485 11.3485C12.1506 10.5464 12.916 10.0514 13.9839 9.63433C14.7929 9.32037 16.0052 8.94683 18.2395 8.846C20.6572 8.736 21.3791 8.71308 27.5002 8.71308ZM27.5002 35.1383C25.4744 35.1383 23.5316 34.3336 22.0992 32.9011C20.6668 31.4687 19.862 29.5259 19.862 27.5002C19.862 25.4744 20.6668 23.5316 22.0992 22.0992C23.5316 20.6668 25.4744 19.862 27.5002 19.862C29.5259 19.862 31.4687 20.6668 32.9011 22.0992C34.3336 23.5316 35.1383 25.4744 35.1383 27.5002C35.1383 29.5259 34.3336 31.4687 32.9011 32.9011C31.4687 34.3336 29.5259 35.1383 27.5002 35.1383ZM27.5002 15.7325C25.9548 15.7325 24.4246 16.0368 22.9969 16.6282C21.5691 17.2196 20.2719 18.0864 19.1791 19.1791C18.0864 20.2719 17.2196 21.5691 16.6282 22.9969C16.0368 24.4246 15.7325 25.9548 15.7325 27.5002C15.7325 29.0455 16.0368 30.5757 16.6282 32.0035C17.2196 33.4312 18.0864 34.7285 19.1791 35.8212C20.2719 36.9139 21.5691 37.7807 22.9969 38.3721C24.4246 38.9635 25.9548 39.2679 27.5002 39.2679C30.6212 39.2679 33.6143 38.0281 35.8212 35.8212C38.0281 33.6143 39.2679 30.6212 39.2679 27.5002C39.2679 24.3792 38.0281 21.386 35.8212 19.1791C33.6143 16.9723 30.6212 15.7325 27.5002 15.7325ZM42.4831 15.2672C42.4831 15.6284 42.4119 15.986 42.2737 16.3196C42.1355 16.6533 41.933 16.9564 41.6776 17.2118C41.4223 17.4671 41.1191 17.6697 40.7855 17.8079C40.4518 17.9461 40.0942 18.0172 39.7331 18.0172C39.3719 18.0172 39.0143 17.9461 38.6807 17.8079C38.3471 17.6697 38.0439 17.4671 37.7885 17.2118C37.5332 16.9564 37.3306 16.6533 37.1924 16.3196C37.0542 15.986 36.9831 15.6284 36.9831 15.2672C36.9831 14.5379 37.2728 13.8384 37.7885 13.3227C38.3043 12.807 39.0037 12.5172 39.7331 12.5172C40.4624 12.5172 41.1619 12.807 41.6776 13.3227C42.1933 13.8384 42.4831 14.5379 42.4831 15.2672Z" fill="white"/>
</svg>
