<svg width="100" height="100" viewBox="0 0 100 100" fill="none" xmlns="http://www.w3.org/2000/svg">
<circle cx="50" cy="50" r="50" fill="white"/>
<path d="M52.4813 20.8335H46.883C41.3065 20.8335 36.7578 25.146 36.7578 30.4793V33.5835H47.1673C47.6023 33.5835 48.0194 33.7481 48.327 34.0411C48.6346 34.3342 48.8074 34.7316 48.8074 35.146C48.8074 35.5604 48.6346 35.9578 48.327 36.2509C48.0194 36.5439 47.6023 36.7085 47.1673 36.7085H36.7578V40.2293H47.1673C48.0857 40.2293 48.8074 40.9168 48.8074 41.7918C48.8074 42.646 48.0857 43.3543 47.1673 43.3543H36.7578V46.8543H47.1673C47.6023 46.8543 48.0194 47.019 48.327 47.312C48.6346 47.605 48.8074 48.0024 48.8074 48.4168C48.8074 48.8312 48.6346 49.2287 48.327 49.5217C48.0194 49.8147 47.6023 49.9793 47.1673 49.9793H36.7578V52.8543C36.7578 58.1877 41.2846 62.5002 46.883 62.5002H52.4813C58.0797 62.5002 62.6065 58.1877 62.6065 52.8543V30.4793C62.6065 25.146 58.0578 20.8335 52.4813 20.8335ZM62.6065 33.5835V36.7085H52.197C51.7621 36.7085 51.3449 36.5439 51.0373 36.2509C50.7297 35.9578 50.5569 35.5604 50.5569 35.146C50.5569 34.7316 50.7297 34.3342 51.0373 34.0411C51.3449 33.7481 51.7621 33.5835 52.197 33.5835H62.6065ZM52.197 40.2293H62.6065V43.3543H52.197C51.2786 43.3543 50.5569 42.646 50.5569 41.7918C50.5569 40.9168 51.2786 40.2293 52.197 40.2293ZM62.6065 46.8543V49.9793H52.197C51.7621 49.9793 51.3449 49.8147 51.0373 49.5217C50.7297 49.2287 50.5569 48.8312 50.5569 48.4168C50.5569 48.0024 50.7297 47.605 51.0373 47.312C51.3449 47.019 51.7621 46.8543 52.197 46.8543H62.6065Z" fill="#7883A3"/>
<path d="M66.9798 43.5C67.5598 43.5 68.116 43.7195 68.5262 44.1102C68.9363 44.5009 69.1667 45.0308 69.1667 45.5833V54.5208C69.1667 58.2943 67.5933 61.9132 64.7927 64.5816C61.9921 67.2501 58.1936 68.7494 54.2326 68.75L44.9144 68.7708C36.683 68.7708 30 62.3979 30 54.5417V45.6042C30 45.0516 30.2304 44.5217 30.6405 44.131C31.0506 43.7403 31.6069 43.5208 32.1869 43.5208C32.7669 43.5208 33.3231 43.7403 33.7332 44.131C34.1433 44.5217 34.3737 45.0516 34.3737 45.6042V54.5417C34.3737 57.2064 35.4832 59.7624 37.4589 61.6488C39.4346 63.5353 42.115 64.5981 44.9122 64.6042L54.2282 64.5833C57.0296 64.5833 59.7162 63.5232 61.6971 61.6361C63.6779 59.749 64.7908 57.1896 64.7908 54.5208V45.5833C64.7908 45.0308 65.0212 44.5009 65.4313 44.1102C65.8414 43.7195 66.3998 43.5 66.9798 43.5ZM39.3598 70.8333H44.8925V68.7708H54.4928V70.8333H60.0037C62.0375 70.8333 63.8963 71.8958 64.8367 73.5833L67.0017 77.375C67.4609 78.1875 66.8486 79.1667 65.8864 79.1667H33.4552C32.493 79.1667 31.8807 78.1875 32.3399 77.375L34.5049 73.5833C35.4672 71.8958 37.3478 70.8333 39.3598 70.8333Z" fill="#7883A3"/>
</svg>
