<svg width="60" height="60" viewBox="0 0 60 60" fill="none" xmlns="http://www.w3.org/2000/svg">
<path fill-rule="evenodd" clip-rule="evenodd" d="M14.3326 5.10726C17.3751 2.08226 22.3851 2.61977 24.9326 6.02477L28.0876 10.2348C30.1626 13.0048 29.9776 16.8748 27.5151 19.3223L26.9201 19.9173C26.8526 20.167 26.8457 20.4293 26.9001 20.6823C27.0576 21.7023 27.9101 23.8623 31.4801 27.4123C35.0501 30.9623 37.2251 31.8123 38.2601 31.9723C38.5209 32.0247 38.7902 32.017 39.0476 31.9498L40.0676 30.9348C42.2576 28.7598 45.6176 28.3523 48.3276 29.8248L53.1026 32.4248C57.1951 34.6448 58.2276 40.2048 54.8776 43.5373L51.3251 47.0673C50.2051 48.1798 48.7001 49.1073 46.8651 49.2798C42.3401 49.7023 31.7976 49.1623 20.7151 38.1448C10.3726 27.8598 8.38757 18.8898 8.13507 14.4698C8.01007 12.2348 9.06507 10.3448 10.4101 9.00977L14.3326 5.10726ZM21.9326 8.27226C20.6651 6.57977 18.3051 6.44477 16.9751 7.76727L13.0501 11.6673C12.2251 12.4873 11.8301 13.3923 11.8801 14.2573C12.0801 17.7698 13.6801 25.8623 23.3601 35.4873C33.5151 45.5823 42.8926 45.8848 46.5176 45.5448C47.2576 45.4773 47.9926 45.0923 48.6801 44.4098L52.2301 40.8773C53.6751 39.4423 53.3576 36.8273 51.3126 35.7173L46.5376 33.1198C45.2176 32.4048 43.6726 32.6398 42.7126 33.5948L41.5751 34.7273L40.2501 33.3973C41.5751 34.7273 41.5726 34.7298 41.5701 34.7298L41.5676 34.7348L41.5601 34.7423L41.5426 34.7573L41.5051 34.7923C41.3996 34.8902 41.2858 34.9789 41.1651 35.0573C40.9651 35.1898 40.7001 35.3373 40.3676 35.4598C39.6926 35.7123 38.7976 35.8473 37.6926 35.6773C35.5251 35.3448 32.6526 33.8673 28.8351 30.0723C25.0201 26.2773 23.5301 23.4223 23.1951 21.2573C23.0226 20.1523 23.1601 19.2573 23.4151 18.5823C23.5554 18.2024 23.7563 17.8478 24.0101 17.5323L24.0901 17.4448L24.1251 17.4073L24.1401 17.3923L24.1476 17.3848L24.1526 17.3798L24.8726 16.6648C25.9426 15.5973 26.0926 13.8298 25.0851 12.4823L21.9326 8.27226Z" fill="white"/>
</svg>
