<svg width="18" height="18" viewBox="0 0 18 18" fill="none" xmlns="http://www.w3.org/2000/svg">
<path d="M7.07 7.57394C7.11375 7.29184 7.21 7.04393 7.3325 6.83022C7.455 6.61651 7.63 6.43699 7.84875 6.30022C8.05875 6.17199 8.32125 6.11215 8.645 6.1036C8.84625 6.11215 9.03 6.14635 9.19625 6.21473C9.37125 6.29167 9.52875 6.39425 9.65125 6.52248C9.77375 6.65071 9.87 6.80458 9.94875 6.97555C10.0275 7.14652 10.0625 7.33458 10.0712 7.52265H11.6375C11.62 7.12087 11.5413 6.75329 11.3925 6.4199C11.2438 6.08651 11.0425 5.79586 10.78 5.5565C10.5175 5.31714 10.2025 5.12908 9.835 4.9923C9.4675 4.85553 9.065 4.79569 8.61875 4.79569C8.05 4.79569 7.55125 4.88972 7.13125 5.08634C6.71125 5.28295 6.36125 5.5394 6.08125 5.8728C5.80125 6.20619 5.59125 6.59087 5.46 7.03539C5.32875 7.47991 5.25 7.94152 5.25 8.43734V8.66814C5.25 9.16395 5.32 9.62557 5.45125 10.0701C5.5825 10.5146 5.7925 10.8993 6.0725 11.2241C6.3525 11.549 6.7025 11.814 7.1225 12.002C7.5425 12.1901 8.04125 12.2927 8.61 12.2927C9.02125 12.2927 9.40625 12.2243 9.765 12.0961C10.1237 11.9679 10.4388 11.7883 10.71 11.5575C10.9812 11.3267 11.2 11.0617 11.3575 10.754C11.515 10.4462 11.6112 10.1214 11.62 9.7709H10.0538C10.045 9.95041 10.0013 10.1128 9.9225 10.2667C9.84375 10.4206 9.73875 10.5488 9.6075 10.6599C9.47625 10.7711 9.3275 10.8566 9.1525 10.9164C8.98625 10.9762 8.81125 10.9933 8.6275 11.0019C8.3125 10.9933 8.05 10.9335 7.84875 10.8053C7.63 10.6685 7.455 10.489 7.3325 10.2753C7.21 10.0615 7.11375 9.80509 7.07 9.52299C7.02625 9.24089 7 8.95024 7 8.66814V8.43734C7 8.13814 7.02625 7.85604 7.07 7.57394ZM8.75 0C3.92 0 0 3.82971 0 8.54846C0 13.2672 3.92 17.0969 8.75 17.0969C13.58 17.0969 17.5 13.2672 17.5 8.54846C17.5 3.82971 13.58 0 8.75 0ZM8.75 15.3872C4.89125 15.3872 1.75 12.3183 1.75 8.54846C1.75 4.77859 4.89125 1.70969 8.75 1.70969C12.6087 1.70969 15.75 4.77859 15.75 8.54846C15.75 12.3183 12.6087 15.3872 8.75 15.3872Z" fill="white"/>
</svg>
