<svg width="50" height="50" viewBox="0 0 50 50" fill="none" xmlns="http://www.w3.org/2000/svg">
<path d="M35.6877 29.6565C35.094 29.3752 32.2502 27.969 31.719 27.7502C31.1877 27.5315 30.8127 27.469 30.4065 28.0627C30.0002 28.6565 28.9065 29.9377 28.5627 30.344C28.219 30.7502 27.9065 30.7815 27.3127 30.344C25.6065 29.6613 24.0312 28.6886 22.6565 27.469C21.4129 26.2947 20.3587 24.9348 19.5315 23.4377C19.1877 22.8752 19.5315 22.5627 19.7815 22.2502C20.0315 21.9377 20.344 21.594 20.6565 21.2502C20.8847 20.9528 21.0738 20.6272 21.219 20.2815C21.2965 20.1207 21.3368 19.9444 21.3368 19.7659C21.3368 19.5873 21.2965 19.4111 21.219 19.2502C21.219 18.969 19.9065 16.1252 19.4065 14.969C18.9065 13.8127 18.469 13.969 18.1252 13.969H16.8752C16.2798 13.9922 15.7178 14.2507 15.3127 14.6877C14.6588 15.3117 14.1409 16.064 13.7914 16.8975C13.4418 17.731 13.2682 18.6278 13.2815 19.5315C13.4432 21.7498 14.2588 23.8703 15.6252 25.6252C18.1336 29.3566 21.5688 32.3719 25.594 34.3752C26.969 34.969 28.0315 35.3127 28.8752 35.594C30.0594 35.9556 31.3126 36.0306 32.5315 35.8127C33.3411 35.6485 34.1084 35.3196 34.7857 34.8466C35.4631 34.3735 36.036 33.7664 36.469 33.0627C36.8293 32.1938 36.9481 31.2436 36.8127 30.3127C36.6565 30.094 36.2815 29.9377 35.6877 29.6565Z" fill="white"/>
<path d="M41.5313 8.37482C39.3701 6.19321 36.7939 4.46646 33.9547 3.29643C31.1155 2.12639 28.0707 1.53676 25 1.56232C20.9322 1.58361 16.9411 2.6718 13.4254 4.7182C9.90978 6.7646 6.99255 9.6976 4.96512 13.2242C2.93769 16.7509 1.87103 20.7478 1.87167 24.8156C1.8723 28.8835 2.94022 32.8801 4.96875 36.4061L1.84375 48.4373L14.1563 45.3123C17.5601 47.1645 21.3748 48.1316 25.25 48.1248H25C29.6185 48.1549 34.1413 46.8088 37.9917 44.2581C41.8421 41.7074 44.8455 38.0677 46.619 33.8032C48.3926 29.5387 48.8558 24.8426 47.9496 20.3138C47.0435 15.785 44.8091 11.6286 41.5313 8.37482ZM25 44.1248C21.5326 44.1307 18.1292 43.1907 15.1562 41.4061L14.4688 40.9998L7.15625 42.9061L9.09375 35.7811L8.65625 35.0623C6.16049 31.0431 5.22691 26.2475 6.03265 21.5855C6.83839 16.9235 9.32739 12.7195 13.0274 9.77102C16.7274 6.82258 21.381 5.33488 26.1052 5.59019C30.8294 5.8455 35.2956 7.82605 38.6563 11.1561C40.4579 12.9432 41.8859 15.0711 42.857 17.4157C43.8281 19.7602 44.3229 22.2746 44.3125 24.8123C44.3042 29.9318 42.2669 34.8392 38.6469 38.4592C35.0269 42.0792 30.1195 44.1166 25 44.1248Z" fill="white"/>
</svg>
